<?xml version="1.0" standalone="no"?>
<!DOCTYPE svg PUBLIC "-//W3C//DTD SVG 20010904//EN"
 "http://www.w3.org/TR/2001/REC-SVG-20010904/DTD/svg10.dtd">
<svg version="1.0" xmlns="http://www.w3.org/2000/svg"
 width="900.000000pt" height="760.000000pt" viewBox="0 0 900.000000 760.000000"
 preserveAspectRatio="xMidYMid meet">
<metadata>
Created by potrace 1.16, written by Peter Selinger 2001-2019
</metadata>
<g transform="translate(0.000000,760.000000) scale(0.100000,-0.100000)"
fill="#000000" stroke="none">
<path d="M4604 7591 c4 -5 27 -13 51 -17 25 -3 48 -11 51 -16 4 -6 9 -7 13 -1
18 28 113 -36 209 -139 20 -21 41 -38 47 -38 7 0 18 -6 24 -14 10 -12 8 -13
-8 -9 -28 7 -27 -13 1 -28 35 -19 61 -47 54 -58 -4 -5 7 -20 23 -32 33 -24 32
-44 -1 -33 -14 4 -18 2 -14 -5 4 -6 15 -11 26 -11 26 0 33 -28 9 -35 -13 -4
-28 0 -40 11 -11 9 -19 12 -19 6 0 -6 17 -20 38 -31 24 -12 38 -27 39 -40 2
-18 -1 -19 -17 -11 -11 6 -24 19 -30 31 -6 11 -15 17 -21 14 -5 -4 5 -18 22
-33 74 -63 119 -116 119 -141 0 -24 -40 -9 -68 25 -22 26 -31 32 -35 20 -3 -8
1 -17 9 -20 22 -8 17 -26 -8 -26 -34 -1 -3 -16 49 -25 24 -4 45 -10 47 -14 3
-4 -10 -24 -27 -44 -36 -43 -98 -74 -144 -73 -17 1 -29 -2 -27 -6 2 -4 0 -10
-6 -13 -6 -4 -20 -29 -32 -56 -12 -27 -27 -49 -34 -49 -6 0 -14 -7 -18 -15 -3
-8 -14 -15 -25 -15 -11 0 -22 -6 -24 -12 -3 -7 -6 3 -7 22 -1 28 -3 31 -9 15
-5 -11 -6 -26 -4 -32 4 -9 -5 -13 -26 -13 -19 0 -30 -5 -28 -12 1 -7 -4 -13
-10 -14 -7 -1 -16 -2 -19 -3 -4 0 0 -8 7 -17 11 -14 11 -18 -4 -29 -12 -8 -14
-15 -8 -20 17 -10 13 -43 -8 -64 -11 -11 -22 -17 -25 -14 -3 4 -6 1 -6 -5 0
-7 5 -12 11 -12 5 0 8 -4 4 -10 -3 -5 -12 -7 -20 -4 -11 5 -13 -2 -8 -30 3
-20 1 -42 -6 -49 -6 -8 -12 -23 -14 -35 -2 -12 -6 -24 -9 -28 -4 -3 -4 -13 -1
-22 5 -11 2 -14 -10 -9 -15 6 -16 3 -7 -13 9 -16 8 -20 -5 -20 -8 0 -15 5 -15
11 0 5 -4 8 -10 4 -5 -3 -18 3 -29 14 -18 18 -18 21 -3 42 8 12 10 19 4 15 -7
-4 -12 -2 -12 6 0 9 -3 9 -8 2 -4 -6 -19 -14 -34 -18 -21 -5 -28 -3 -28 9 0 8
-7 15 -16 15 -11 0 -14 5 -10 16 4 11 2 15 -8 11 -13 -5 -13 -2 -4 18 8 18 7
28 -5 45 -8 12 -13 30 -10 41 3 10 0 19 -6 19 -5 0 -8 7 -5 15 4 9 0 15 -7 15
-11 0 -11 3 1 10 10 6 11 10 3 10 -7 0 -13 9 -13 21 0 15 5 19 15 15 8 -3 14
-2 14 2 -3 20 2 33 11 27 6 -3 10 -1 10 4 0 13 -2 13 -34 1 -26 -9 -26 -9 -27
40 -2 60 -2 61 -13 78 -5 9 0 22 13 36 19 20 20 24 7 29 -13 5 -14 11 -4 34
17 40 32 55 50 48 10 -4 14 -14 11 -26 -4 -15 -2 -18 12 -13 9 4 13 10 8 13
-5 3 -8 16 -7 27 1 17 -3 20 -19 16 -14 -3 -18 -1 -13 6 4 7 11 12 17 12 13 0
44 34 45 50 1 8 5 24 9 35 5 11 5 17 0 13 -10 -10 -64 22 -76 45 -15 26 25 22
51 -5 l21 -23 -7 30 c-4 17 -10 31 -14 33 -5 2 -6 12 -3 22 6 22 -22 29 -30 8
-3 -10 -8 -10 -16 -2 -10 9 -9 20 5 50 16 38 19 87 8 149 -3 17 -5 41 -5 55
-1 32 -38 60 -83 62 -31 1 -34 4 -34 30 1 24 5 28 32 29 17 1 24 3 14 6 -18 4
-31 30 -23 43 3 5 23 11 45 15 45 8 53 15 40 35 -7 12 -12 12 -22 2 -6 -6 -21
-12 -31 -12 -10 0 -26 -9 -35 -21 -10 -11 -24 -21 -32 -23 -30 -5 -70 -29 -70
-42 0 -18 -29 -25 -52 -13 -11 6 -22 8 -26 5 -3 -3 -14 1 -24 11 -11 9 -18 11
-18 5 0 -7 -5 -11 -12 -9 -6 1 -14 -6 -16 -15 -3 -15 3 -18 32 -18 23 0 36 -5
36 -13 0 -16 -41 -54 -55 -52 -99 14 -112 34 -50 77 25 18 45 37 45 44 0 6 7
15 16 18 22 9 26 8 18 -5 -9 -15 65 -2 85 14 12 10 13 9 6 -3 -8 -13 -7 -13 8
-1 14 11 15 17 6 28 -7 8 -19 11 -28 8 -13 -5 -14 -4 -3 6 21 22 13 29 -30 24
-268 -29 -533 -76 -649 -115 -30 -11 -90 -35 -132 -54 -42 -20 -80 -36 -83
-36 -18 0 -273 -114 -426 -190 -795 -398 -1235 -786 -1617 -1425 -590 -985
-691 -2198 -274 -3270 290 -747 818 -1385 1503 -1820 148 -94 441 -244 595
-304 248 -97 520 -173 771 -215 157 -26 373 -50 381 -42 3 2 -15 10 -38 18
-24 7 -68 28 -98 48 -30 19 -58 34 -61 33 -4 -1 -31 18 -59 42 -29 25 -60 51
-70 58 -9 6 -32 37 -51 67 -19 30 -37 57 -40 60 -11 10 -75 95 -87 115 -6 11
-28 54 -49 95 -20 41 -48 92 -61 112 -12 21 -23 43 -23 50 0 16 -90 198 -98
198 -4 0 -25 16 -47 36 -22 19 -58 43 -80 54 -53 24 -137 90 -151 118 -6 12
-24 37 -40 55 -16 17 -51 59 -77 92 -59 75 -59 75 -78 105 -29 45 -83 102
-111 116 -16 8 -28 22 -28 32 0 9 -7 26 -15 36 -19 25 -19 65 0 86 16 18 9 64
-10 56 -30 -11 -57 55 -45 111 6 22 5 44 -1 56 -9 15 -6 22 10 34 14 10 21 25
21 49 0 21 6 37 15 40 18 7 31 70 18 87 -6 6 -15 45 -22 85 -7 39 -17 72 -22
72 -5 0 -9 5 -9 11 0 6 -9 24 -21 40 -11 16 -19 35 -17 41 5 15 -31 58 -49 58
-7 0 -13 -8 -13 -18 0 -10 -5 -23 -12 -30 -8 -8 -8 -15 1 -25 9 -11 8 -17 -3
-26 -11 -10 -17 -8 -25 6 -6 10 -11 14 -11 9 0 -5 -11 3 -25 18 -17 18 -31 25
-44 21 -25 -8 -51 4 -51 24 -1 9 -17 34 -37 56 -20 22 -30 32 -23 22 14 -19 7
-22 -21 -7 -10 6 -19 21 -19 34 0 12 -20 51 -45 87 -25 35 -45 70 -45 78 0 8
-6 11 -16 7 -8 -3 -36 5 -62 18 -26 13 -59 26 -74 30 -15 3 -37 21 -50 38 -12
18 -30 40 -38 48 -9 9 -23 26 -31 37 -20 28 -39 31 -71 10 -26 -18 -28 -18
-70 4 -24 12 -45 25 -48 28 -3 4 -22 17 -42 30 -20 12 -48 35 -61 50 -13 16
-33 32 -44 35 -12 4 -31 22 -44 41 -13 19 -28 35 -32 35 -4 0 -16 19 -26 41
-14 30 -17 50 -11 70 11 37 -18 144 -60 225 -16 32 -30 65 -30 74 0 8 -11 27
-25 42 -26 28 -32 53 -15 63 6 3 -1 22 -15 45 -14 22 -25 51 -25 65 0 14 -4
25 -9 25 -11 0 -39 112 -47 191 -3 39 -13 75 -24 89 l-18 24 -4 -68 c-2 -57
11 -136 35 -211 2 -5 8 -28 12 -50 11 -49 10 -47 18 -65 3 -8 11 -52 17 -97 7
-46 18 -88 26 -94 14 -11 30 -76 22 -85 -3 -2 -21 27 -41 66 -25 47 -37 83
-37 111 0 41 -19 85 -52 123 -10 11 -18 23 -18 27 0 4 -3 15 -6 23 -4 11 -2
15 8 11 26 -10 20 66 -12 140 -11 26 -31 245 -24 257 8 13 -16 98 -27 98 -5 0
-9 7 -9 15 0 9 -7 18 -15 21 -12 5 -14 28 -11 133 2 69 8 139 15 154 8 21 8
26 0 21 -22 -13 7 192 37 261 7 17 19 58 28 91 17 66 151 357 167 362 5 2 6 8
3 13 -3 6 -2 15 4 22 5 7 22 47 37 90 15 42 31 77 35 77 9 0 24 -31 22 -42 -1
-5 0 -8 3 -8 7 0 45 91 45 109 0 9 5 22 12 29 9 9 9 12 -1 12 -10 0 -11 3 -2
13 6 8 8 17 4 20 -3 4 -1 12 5 19 5 7 10 36 10 63 -1 48 28 125 52 140 5 3 10
13 10 21 0 9 7 22 15 31 8 8 13 19 10 24 -4 5 5 21 19 36 27 29 27 44 -1 22
-14 -12 -13 -9 3 16 26 41 35 53 66 86 14 16 21 29 15 29 -9 0 -9 2 -1 8 21
14 37 54 25 62 -9 5 -7 11 5 21 12 9 15 10 10 2 -4 -8 -2 -13 6 -13 7 0 19 12
26 28 24 49 26 56 14 48 -7 -4 -12 -2 -12 6 0 21 13 34 34 33 11 0 21 6 24 14
3 10 0 12 -12 8 -11 -4 -15 -3 -11 4 4 6 13 8 20 5 7 -2 28 11 46 30 18 19 30
34 25 34 -4 0 -17 -12 -30 -27 -14 -16 -25 -22 -29 -16 -9 15 31 63 47 57 20
-8 30 14 16 31 -7 8 -10 16 -6 16 3 1 10 2 15 3 5 0 13 5 18 10 5 5 3 6 -5 2
-26 -15 -2 24 53 87 8 9 15 23 15 30 0 8 3 17 7 21 5 4 8 11 8 14 1 14 29 58
61 95 57 68 329 233 634 385 244 122 329 160 310 137 -8 -10 -9 -15 -2 -15 6
0 14 5 18 11 4 6 19 9 36 5 16 -3 27 -2 24 3 -7 10 33 20 53 13 8 -3 3 -11
-16 -23 -15 -10 -23 -19 -18 -19 6 0 3 -5 -5 -11 -12 -8 -10 -9 8 -4 l22 6
-25 -38 c-17 -23 -22 -39 -15 -41 16 -6 -29 -52 -50 -52 -20 0 -53 -34 -43
-43 3 -4 19 -7 36 -7 l29 0 -32 -40 c-37 -47 -26 -54 16 -9 16 17 44 38 63 46
24 10 31 17 21 23 -16 10 17 30 50 30 28 0 15 -20 -13 -21 -12 0 -16 -3 -9 -6
6 -2 10 -9 6 -14 -3 -5 -7 -23 -9 -40 -3 -24 -1 -30 13 -28 9 1 25 -1 35 -6
12 -5 23 0 38 19 24 31 39 33 39 7 0 -10 -11 -26 -25 -35 -14 -9 -25 -24 -25
-34 0 -12 8 -8 28 16 15 18 33 32 40 32 19 0 73 40 67 49 -2 5 7 14 20 21 17
9 25 22 25 40 0 21 12 38 47 66 26 22 55 44 64 49 9 6 26 16 38 23 31 19 26
-1 -14 -48 -19 -23 -35 -46 -35 -50 0 -5 -16 -18 -35 -30 -27 -17 -33 -25 -25
-35 6 -7 7 -15 3 -17 -4 -1 -19 -19 -32 -38 -20 -28 -21 -32 -5 -20 10 8 25
21 33 28 7 7 15 11 18 8 7 -7 -18 -50 -38 -63 -17 -12 -44 -73 -32 -73 10 0
117 92 153 133 29 32 38 37 47 26 26 -32 10 -99 -24 -99 -20 0 -42 -29 -43
-57 0 -24 -79 -86 -109 -86 -34 0 -42 3 -36 13 3 6 -1 10 -10 10 -8 0 -19 -9
-23 -20 -7 -19 -68 -70 -84 -70 -4 0 -8 14 -8 31 0 17 -4 28 -10 24 -15 -9
-12 -46 5 -59 13 -9 7 -18 -37 -53 -38 -30 -56 -39 -64 -32 -9 7 -19 4 -33
-10 -24 -24 -37 -26 -44 -8 -3 6 -6 0 -6 -14 -1 -29 -22 -52 -43 -47 -7 1 -28
-12 -46 -30 -18 -17 -36 -32 -40 -32 -4 0 -41 -33 -82 -73 -107 -102 -178
-212 -129 -200 19 5 19 4 -1 -42 -11 -25 -20 -53 -20 -60 0 -7 -12 -23 -26
-34 -31 -25 -28 -26 18 -7 34 14 34 14 61 -19 15 -19 27 -45 27 -58 0 -14 6
-30 14 -36 8 -6 19 -25 26 -40 9 -24 19 -30 56 -36 25 -3 44 -9 42 -13 -2 -4
-12 -25 -22 -47 -10 -22 -28 -61 -41 -86 -22 -44 -23 -50 -12 -117 14 -79 23
-96 39 -68 8 14 12 16 19 5 6 -10 11 -5 20 16 12 31 42 137 61 215 10 40 17
48 60 70 27 13 61 35 76 49 15 14 32 26 37 26 6 0 9 9 7 18 -2 10 2 25 9 33 7
9 13 48 13 96 l1 82 47 45 c38 37 47 54 50 85 2 24 12 50 26 64 12 14 22 34
22 44 0 51 38 77 76 51 14 -9 38 -16 55 -15 26 1 34 -7 30 -31 -1 -4 3 -16 8
-26 7 -12 7 -21 0 -28 -6 -6 -1 -14 16 -23 14 -7 25 -17 25 -22 0 -5 6 -6 13
-2 7 4 6 0 -3 -12 -24 -31 -42 -66 -36 -71 3 -3 1 -14 -5 -25 -17 -32 -21 -68
-7 -66 7 2 12 -5 12 -14 -1 -10 2 -18 7 -18 5 0 6 -7 3 -15 -5 -12 -2 -12 25
1 17 9 31 20 31 25 0 5 5 9 10 9 13 0 59 50 60 65 0 6 12 23 25 39 l24 30 -1
-71 c0 -39 2 -75 6 -82 4 -6 1 -11 -8 -11 -9 0 -16 -5 -16 -11 0 -5 5 -7 12
-3 8 5 9 2 5 -9 -4 -10 -1 -17 5 -17 6 0 8 -3 5 -7 -4 -3 -2 -12 4 -19 7 -8 7
-14 0 -18 -7 -5 -7 -15 1 -31 8 -19 7 -27 -4 -39 -9 -8 -18 -13 -21 -10 -3 3
-4 -6 -3 -19 0 -14 4 -23 9 -20 4 2 7 -3 7 -11 0 -9 4 -16 9 -16 15 0 22 -32
10 -46 -6 -8 -10 -14 -8 -15 2 0 15 -2 28 -3 13 -2 28 -10 33 -20 5 -9 14 -13
20 -10 11 7 29 -16 22 -28 -3 -4 -14 -8 -25 -8 -10 0 -19 -4 -19 -10 0 -5 -8
-10 -18 -10 -10 0 -28 -10 -39 -22 -36 -41 -38 -54 -2 -25 77 62 117 69 104
19 -5 -22 -4 -24 8 -13 21 17 53 -25 35 -46 -6 -8 -11 -29 -10 -48 1 -27 -5
-38 -33 -59 -18 -14 -46 -26 -62 -26 -20 0 -37 -10 -59 -37 -35 -41 -85 -54
-166 -41 -27 5 -70 12 -98 16 -46 8 -52 6 -75 -18 -14 -14 -25 -31 -25 -38 0
-6 -16 -19 -36 -27 -36 -15 -96 -72 -157 -150 -37 -47 -24 -37 58 42 82 79
182 114 219 77 21 -21 20 -29 -6 -54 -16 -14 -30 -19 -46 -15 -17 4 -23 2 -19
-7 2 -7 14 -13 26 -12 18 1 21 -3 16 -20 -27 -81 0 -142 64 -149 19 -2 40 -12
47 -22 12 -16 11 -20 -9 -29 -42 -21 -97 -37 -106 -32 -5 4 -18 -9 -30 -26
-26 -44 -60 -65 -72 -46 -12 19 -10 50 4 68 20 25 68 52 82 46 8 -3 17 -1 20
4 4 6 -4 10 -16 10 -19 0 -20 2 -8 17 11 13 7 12 -16 -3 -28 -20 -42 -23 -88
-25 -13 0 -15 -4 -7 -19 10 -18 1 -23 -67 -36 -88 -17 -183 -152 -138 -197 15
-16 4 -34 -14 -23 -5 4 -12 0 -14 -6 -4 -10 -8 -9 -16 2 -9 13 -11 13 -11 -2
0 -14 -8 -18 -34 -18 -42 0 -102 -39 -99 -66 2 -19 -21 -77 -40 -102 -8 -10
-13 -9 -28 4 -16 15 -17 13 -12 -23 4 -29 -1 -51 -16 -81 -12 -23 -22 -42 -24
-42 -1 0 -2 14 -2 32 0 17 -6 33 -13 36 -9 2 -13 -3 -12 -14 6 -50 0 -85 -12
-78 -7 4 -5 -2 5 -13 14 -16 16 -26 8 -47 -6 -14 -18 -26 -28 -26 -13 -1 -10
-5 9 -13 24 -11 25 -14 13 -31 -7 -10 -18 -15 -23 -12 -5 3 -12 -3 -15 -14 -3
-11 0 -20 6 -20 7 -1 -2 -7 -20 -15 -17 -7 -39 -25 -48 -39 -10 -14 -23 -26
-29 -26 -7 0 -20 -16 -29 -35 -10 -21 -30 -42 -50 -51 -65 -31 -97 -131 -77
-245 6 -35 12 -77 14 -94 2 -16 7 -51 11 -77 9 -53 -10 -141 -29 -135 -14 4
-45 69 -49 100 -1 12 -8 28 -15 36 -8 8 -11 24 -7 38 4 16 2 22 -4 18 -7 -4
-9 9 -5 38 5 33 1 53 -15 85 -23 46 -35 51 -63 25 -11 -9 -18 -11 -18 -5 0 24
-40 52 -74 52 -19 0 -37 6 -39 13 -4 10 -6 10 -6 0 -1 -7 -10 -13 -20 -13 -22
0 -74 -39 -52 -40 8 0 11 -6 7 -16 -4 -9 -1 -24 6 -33 12 -14 11 -14 -4 -2
-10 7 -18 9 -18 4 0 -16 -39 -8 -53 11 -16 21 -102 32 -113 14 -5 -8 -10 -5
-15 8 -7 19 -7 19 -14 -1 -18 -53 -26 -65 -43 -65 -39 0 -56 -39 -60 -140 -2
-52 -8 -102 -12 -110 -10 -18 -6 -204 5 -270 4 -25 16 -61 26 -80 10 -19 25
-52 34 -72 9 -21 25 -40 35 -43 10 -3 21 -12 24 -20 7 -20 28 -19 65 2 29 17
31 17 45 -2 13 -18 15 -18 21 -3 4 9 4 21 1 26 -3 6 0 15 7 21 8 6 15 31 15
55 3 69 16 93 54 100 99 20 98 20 98 -8 0 -15 -7 -40 -15 -56 -11 -21 -14 -45
-10 -84 4 -33 2 -57 -4 -61 -6 -3 -11 1 -11 10 0 9 -4 14 -8 11 -5 -3 -5 -34
0 -68 6 -45 5 -70 -3 -85 -19 -35 -16 -36 86 -34 74 1 100 -4 100 -20 0 -8 8
-14 17 -14 9 0 19 -3 23 -6 3 -4 7 -68 8 -144 1 -100 5 -139 15 -143 6 -2 12
-9 12 -15 1 -19 63 -84 88 -91 15 -5 31 -1 51 13 43 31 82 19 127 -38 31 -38
36 -42 30 -20 -4 19 0 34 14 52 11 14 20 38 20 54 0 16 6 38 14 48 12 17 16
17 31 5 15 -12 16 -12 13 6 -2 13 3 20 19 22 13 2 31 13 40 25 33 41 49 49 62
33 10 -12 8 -19 -8 -35 -17 -17 -19 -24 -9 -40 11 -18 12 -18 41 0 17 10 34
16 39 13 4 -3 8 -1 8 4 0 5 17 4 38 -3 24 -9 37 -19 37 -32 0 -15 8 -18 52
-18 29 0 58 -6 64 -12 18 -18 39 -16 60 3 22 20 116 33 105 15 -4 -6 -14 -11
-21 -11 -23 0 -7 -24 25 -39 47 -20 62 -39 50 -61 -9 -18 -8 -19 18 -14 24 5
35 -1 70 -38 23 -23 42 -51 42 -60 0 -10 7 -18 16 -18 9 0 26 -10 38 -23 18
-19 31 -23 71 -22 64 2 161 -42 190 -85 11 -16 23 -30 28 -30 4 0 7 -7 7 -15
0 -21 33 -95 43 -95 4 0 5 -5 2 -10 -3 -6 1 -13 9 -16 24 -9 19 -36 -13 -75
-28 -34 -35 -50 -32 -77 1 -10 5 -10 20 0 11 7 19 17 18 22 -2 13 81 18 88 6
14 -22 -8 -59 -43 -74 -29 -12 -32 -15 -14 -15 12 -1 22 -7 23 -13 0 -8 3 -7
7 2 15 34 57 80 71 80 9 0 36 -11 60 -25 23 -14 49 -25 57 -25 15 0 29 -43 19
-59 -10 -16 6 -13 26 5 15 14 23 14 56 3 21 -6 53 -11 72 -11 42 2 70 -15 133
-80 30 -31 55 -48 71 -48 21 0 25 -7 36 -54 19 -85 3 -140 -61 -206 -19 -19
-42 -54 -53 -78 -11 -26 -23 -41 -31 -38 -15 6 -20 -20 -28 -139 -5 -75 -10
-97 -37 -177 -39 -115 -54 -132 -110 -130 -29 1 -39 -2 -39 -13 0 -9 -10 -19
-22 -24 -26 -10 -72 -58 -81 -84 -4 -9 -2 -29 3 -43 7 -19 5 -39 -10 -82 -11
-31 -20 -50 -20 -42 0 9 -6 5 -15 -10 -8 -14 -12 -33 -9 -42 3 -10 0 -34 -7
-53 -14 -37 -28 -42 -76 -25 -28 10 -28 9 -5 -6 12 -9 22 -22 22 -29 0 -7 7
-15 15 -19 8 -3 15 -14 15 -25 0 -23 -34 -45 -57 -37 -14 6 -14 3 1 -18 20
-32 20 -40 0 -32 -14 5 -15 4 -4 -9 7 -8 18 -15 24 -15 6 0 17 -14 25 -31 9
-21 29 -38 70 -57 55 -26 60 -26 256 -26 583 1 1143 136 1670 404 731 370
1333 986 1685 1722 509 1068 487 2304 -60 3355 -355 681 -938 1256 -1625 1604
-448 226 -937 363 -1410 394 -49 3 -112 8 -138 11 -31 3 -47 1 -43 -5z m-774
-106 c0 -2 -25 -20 -55 -39 -65 -42 -98 -73 -90 -86 3 -5 24 1 45 15 22 14 43
24 47 23 5 -1 18 3 31 10 12 7 22 9 22 4 0 -5 -15 -15 -32 -23 -18 -7 -70 -38
-115 -68 -61 -42 -89 -68 -110 -106 -18 -32 -36 -50 -48 -51 -40 -2 -45 -4
-45 -19 0 -17 -38 -35 -57 -28 -8 3 -9 12 -3 28 l9 23 -52 -19 c-28 -10 -63
-19 -77 -19 l-25 1 33 30 c18 16 30 34 27 39 -3 5 10 21 30 35 29 22 41 26 70
21 28 -6 37 -3 42 10 3 9 0 19 -7 24 -17 10 26 40 59 40 13 0 21 3 18 7 -4 3
-2 12 3 18 8 9 3 11 -17 8 -25 -3 -23 -1 12 19 42 24 251 106 273 107 6 1 12
-1 12 -4z m190 -140 c0 -2 -14 -12 -31 -20 -42 -22 -109 -91 -109 -112 1 -16
2 -15 12 2 17 31 98 105 117 107 81 7 105 -2 95 -39 -5 -16 -13 -21 -36 -21
-24 1 -29 5 -24 21 3 11 2 16 -2 11 -4 -5 -17 -20 -29 -34 l-22 -25 25 0 c13
0 24 3 24 8 0 11 38 9 45 -3 4 -6 0 -24 -9 -40 -8 -17 -10 -30 -5 -30 6 0 7
-6 3 -12 -6 -10 -4 -10 7 0 21 19 32 14 26 -14 -3 -18 2 -32 17 -45 20 -19 20
-21 4 -30 -10 -6 -18 -15 -18 -21 0 -7 5 -6 15 2 13 10 15 9 15 -9 0 -11 -3
-20 -7 -20 -5 1 -15 1 -23 0 -12 -1 -12 -4 3 -12 24 -14 22 -32 -4 -24 -14 5
-19 3 -15 -3 4 -6 -3 -16 -16 -23 -20 -11 -20 -13 -5 -24 9 -6 14 -14 12 -17
-3 -3 6 -17 21 -33 14 -15 23 -34 20 -41 -3 -8 -1 -14 5 -14 6 0 9 -6 6 -14
-4 -10 0 -13 14 -11 11 2 22 -2 26 -11 6 -16 -15 -47 -27 -39 -4 3 -10 -5 -13
-16 -3 -11 -15 -23 -26 -26 -12 -3 -24 -16 -27 -29 -10 -39 -36 -18 -32 27 2
20 0 35 -3 33 -4 -2 -12 8 -17 23 -10 27 -11 28 -17 6 -9 -27 -14 -28 -29 -7
-9 12 -11 3 -6 -43 3 -32 9 -64 13 -71 13 -19 17 -101 5 -108 -5 -4 -16 -20
-24 -38 -7 -17 -13 -24 -14 -15 0 8 -10 25 -22 36 -13 11 -31 31 -40 44 l-18
23 0 -25 c0 -14 4 -29 9 -34 16 -18 28 -70 21 -89 -6 -19 -7 -19 -28 2 -12 12
-26 22 -32 22 -5 0 -15 10 -21 23 -6 12 -21 32 -32 44 -16 18 -18 25 -8 37 9
11 10 20 2 35 -6 11 -11 29 -11 41 0 15 -5 20 -17 18 -10 -1 -23 1 -30 5 -6 4
-14 3 -18 -3 -10 -16 -45 -12 -52 6 -8 21 55 83 66 65 8 -12 20 -13 69 -9 17
2 22 9 22 30 0 19 8 32 30 45 17 9 30 21 30 24 0 4 9 11 21 14 11 4 25 19 30
33 14 36 18 92 8 92 -5 0 -9 7 -9 15 0 9 -6 12 -17 8 -16 -5 -15 -4 1 9 10 8
17 21 14 29 -3 8 -1 24 3 36 5 13 4 33 -1 45 l-9 23 0 -22 c-1 -12 -5 -24 -10
-27 -14 -9 -111 14 -111 25 0 6 -4 7 -10 4 -5 -3 -10 0 -10 9 0 8 -6 16 -12
19 -21 7 6 42 31 40 23 -3 27 7 11 23 -13 13 23 47 105 103 51 34 105 53 105
36z m2279 -256 c13 -11 28 -19 32 -19 17 0 184 -109 222 -144 20 -20 42 -36
48 -36 45 0 405 -312 580 -501 534 -578 862 -1274 964 -2046 34 -263 41 -656
15 -837 l-8 -51 -1 58 c-1 53 -11 71 -26 46 -5 -7 -16 -2 -31 12 -18 17 -24
33 -24 68 -1 40 -2 44 -14 29 -10 -13 -15 -15 -24 -6 -7 7 -12 19 -12 28 0 8
-6 25 -14 35 -8 11 -17 50 -21 87 -4 40 -12 69 -20 72 -7 2 -15 -1 -18 -7 -7
-19 2 -133 13 -162 5 -14 10 -50 10 -80 0 -30 5 -57 10 -60 6 -3 10 -28 10
-55 0 -40 3 -48 17 -46 11 2 23 22 34 62 l17 59 1 -67 c1 -38 6 -70 12 -74 30
-18 -20 -263 -77 -377 -8 -16 -14 -33 -14 -39 0 -6 -13 -26 -30 -45 -16 -18
-30 -42 -30 -53 0 -10 -16 -35 -35 -56 -19 -20 -35 -39 -35 -41 0 -11 -56 -63
-67 -63 -6 0 -14 -9 -18 -19 -8 -26 -35 -36 -35 -13 0 9 8 67 19 127 19 113
19 301 0 337 -5 9 -9 67 -9 128 0 83 -4 117 -16 135 -8 13 -14 29 -13 37 6 27
-25 179 -47 233 -8 18 -9 17 -14 -10 -6 -28 -8 -26 -28 35 -23 70 -23 53 1
-50 24 -103 50 -286 43 -307 -3 -11 1 -34 10 -51 12 -25 15 -61 15 -150 -3
-274 -1 -334 8 -346 13 -16 17 -171 5 -188 -5 -7 -7 -31 -4 -52 4 -35 6 -37
19 -23 7 10 20 17 27 17 8 0 14 5 14 10 0 6 6 10 14 10 7 0 25 9 40 21 l27 21
-26 -69 c-54 -146 -210 -424 -277 -493 -13 -14 -64 -74 -113 -135 -49 -60 -96
-117 -105 -125 -9 -8 -30 -33 -46 -55 -15 -22 -41 -55 -57 -74 -17 -19 -37
-51 -46 -70 -9 -20 -40 -71 -69 -115 -29 -43 -52 -83 -52 -88 0 -12 -118 -165
-174 -226 -22 -23 -94 -81 -162 -127 -74 -51 -160 -122 -217 -179 -57 -57
-115 -105 -144 -119 -26 -12 -77 -46 -113 -73 -135 -105 -377 -233 -489 -258
-41 -9 -76 -15 -77 -13 -2 2 18 20 44 40 84 64 132 111 180 174 26 34 74 95
108 135 59 71 134 197 134 225 0 31 103 164 206 267 46 46 65 74 79 116 10 30
25 66 35 80 16 24 33 74 47 135 6 30 6 54 1 198 -2 58 1 78 17 102 11 17 24
33 30 37 5 4 6 8 2 8 -5 0 -5 6 0 13 4 6 8 17 9 24 1 6 11 24 23 40 43 59 44
174 1 157 -8 -3 -34 -9 -57 -11 l-43 -6 0 50 c0 55 -21 84 -55 76 -11 -2 -27
-6 -35 -7 -29 -6 -87 -35 -100 -50 -7 -9 -19 -16 -26 -16 -8 0 -23 -6 -34 -12
-16 -10 -24 -10 -41 0 -27 17 -123 6 -165 -19 -17 -11 -37 -19 -44 -19 -13 0
-80 65 -80 78 0 5 -20 29 -45 55 -43 46 -72 113 -61 143 7 17 -25 74 -41 74
-7 0 -13 11 -13 25 0 14 -4 25 -9 25 -14 0 -20 38 -7 44 6 2 1 5 -12 5 -13 1
-29 7 -35 14 -14 14 -21 91 -8 83 12 -8 -4 63 -17 76 -7 7 -2 22 14 45 13 20
24 42 24 49 0 7 7 34 16 60 9 26 15 70 14 98 -2 77 -2 79 4 108 5 21 2 31 -12
39 -29 18 -17 63 57 219 7 14 23 43 36 65 13 22 24 48 24 57 1 9 14 29 29 45
15 15 34 43 42 62 8 21 25 39 44 47 67 29 121 115 113 180 -2 23 2 56 9 74 8
18 14 43 14 55 0 16 20 41 60 77 55 49 61 59 69 106 10 64 17 72 37 43 13 -18
24 -22 55 -20 21 2 41 0 45 -4 14 -14 47 -7 70 16 42 40 64 57 73 57 5 0 11 5
13 10 4 12 51 21 120 24 26 1 53 8 61 14 7 7 17 9 20 5 15 -14 75 -13 87 2 17
21 37 19 45 -6 5 -16 10 -18 21 -8 17 14 17 9 4 -27 -8 -20 -7 -32 5 -50 19
-30 19 -58 -1 -89 -9 -13 -13 -32 -9 -42 11 -31 72 -74 110 -78 50 -4 77 -25
90 -71 8 -31 16 -39 35 -40 15 -1 38 -17 61 -44 l37 -43 15 29 c10 20 13 47
10 85 -5 51 -3 58 18 73 33 22 44 20 79 -14 17 -17 37 -30 45 -30 7 0 15 -4
17 -8 2 -5 30 -21 62 -36 l59 -26 24 22 c29 27 26 27 49 7 13 -12 26 -14 41
-9 22 9 26 23 39 147 6 61 -5 270 -13 246 -2 -7 -10 -10 -17 -7 -7 3 -18 -7
-24 -21 -15 -32 -36 -32 -50 0 -13 27 -42 34 -42 10 0 -27 -29 -29 -50 -4 -10
13 -19 20 -20 16 0 -18 -29 22 -36 49 -4 16 -16 39 -27 52 -11 12 -15 22 -9
22 7 0 12 10 12 23 0 33 -11 67 -20 62 -4 -2 -10 16 -13 42 -4 42 -25 73 -48
73 -14 0 -39 -31 -34 -41 4 -5 3 -14 -1 -20 -4 -8 -12 -3 -20 12 l-13 24 -1
-25 c0 -14 6 -34 14 -45 8 -11 12 -32 11 -47 -2 -16 4 -33 13 -40 12 -10 14
-10 8 0 -4 6 -3 12 3 12 5 0 14 -7 19 -16 11 -19 3 -66 -9 -58 -6 3 -8 -14 -5
-39 3 -40 2 -44 -16 -39 -11 2 -22 12 -25 21 -2 9 -9 24 -14 33 -18 34 -11 51
17 44 17 -5 23 -3 19 4 -3 5 -16 10 -28 10 -17 0 -30 16 -57 68 -19 37 -39 70
-43 73 -4 3 -11 32 -14 65 -3 32 -9 61 -12 64 -3 3 -17 22 -31 42 -14 21 -29
38 -34 38 -4 0 -17 11 -28 25 -11 14 -24 25 -29 25 -14 0 -49 33 -49 46 0 7
-11 31 -24 54 -22 39 -24 40 -30 18 -7 -22 -7 -22 -16 -3 -4 11 -11 28 -14 39
-5 15 -9 16 -21 6 -25 -21 -8 -88 37 -141 21 -25 38 -50 38 -55 0 -22 52 -84
70 -84 13 0 20 -7 20 -20 0 -11 5 -20 10 -20 19 0 90 -75 89 -95 0 -19 -1 -19
-16 3 -8 12 -19 22 -23 22 -15 0 -17 -60 -3 -72 10 -8 12 -23 8 -52 -10 -64
-15 -76 -32 -76 -13 0 -14 -8 -8 -46 8 -54 4 -54 -59 0 -50 41 -51 56 -6 56
51 0 80 17 80 46 0 43 -22 104 -42 115 -10 5 -18 15 -18 22 0 14 -54 67 -69
67 -12 0 -111 130 -136 180 -26 50 -75 81 -75 48 0 -7 -12 -24 -25 -37 -14
-13 -25 -29 -25 -37 0 -19 -24 -18 -40 1 -7 9 -19 14 -25 11 -7 -2 -18 1 -24
7 -20 20 -32 -13 -28 -79 5 -62 -3 -82 -37 -101 -10 -6 -29 -36 -43 -67 -22
-52 -22 -58 -8 -85 13 -26 13 -33 0 -58 -8 -15 -15 -36 -15 -45 0 -10 -9 -22
-20 -28 -11 -6 -20 -17 -20 -25 0 -8 -8 -16 -17 -16 -29 -3 -67 -6 -79 -8 -6
0 -23 -13 -37 -27 l-26 -25 -13 23 c-7 13 -18 32 -24 43 -9 16 -21 20 -57 19
l-45 -1 1 50 c0 32 -4 52 -14 58 -8 5 -9 9 -4 9 6 0 4 4 -4 9 -12 7 -12 17 -2
57 15 59 15 131 1 199 -17 75 -17 90 0 90 8 0 15 5 15 12 0 21 11 23 71 12 32
-6 80 -12 106 -13 26 -1 50 -5 54 -9 27 -27 46 25 35 95 -6 34 -5 55 1 59 7 4
6 9 -1 13 -6 4 -11 15 -11 25 0 10 -11 28 -25 41 -14 13 -25 30 -25 37 0 21
-27 45 -73 66 -22 9 -37 20 -34 24 4 3 2 12 -4 19 -9 11 -5 16 16 24 16 6 32
7 39 2 6 -5 21 -6 33 -3 22 6 22 7 8 35 -16 31 -12 47 7 28 17 -17 59 -16 52
2 -3 8 4 19 16 26 17 9 21 19 18 42 -3 19 0 32 9 35 7 3 13 10 13 15 0 6 6 16
14 22 11 8 12 21 7 51 -9 46 12 95 40 95 9 0 20 8 24 18 6 16 7 16 19 -1 13
-16 14 -16 19 4 6 21 -38 131 -54 137 -5 2 -9 11 -9 21 0 9 -5 22 -12 29 -9 9
-9 18 1 38 13 29 6 48 -9 24 -8 -13 -10 -12 -10 3 0 9 4 17 9 17 5 0 12 10 16
23 6 19 9 16 22 -25 8 -29 20 -48 29 -48 14 0 13 -19 -1 -67 -2 -7 2 -10 9 -7
14 5 43 -23 33 -33 -4 -3 -13 0 -22 7 -8 7 -15 8 -15 2 0 -5 7 -15 15 -22 8
-7 15 -19 15 -26 0 -8 7 -14 15 -14 9 0 18 -7 21 -15 7 -17 34 -21 34 -5 0 6
7 10 15 10 8 0 16 8 16 18 1 15 2 15 6 -1 6 -22 39 -57 54 -57 5 0 8 4 4 10
-3 5 2 18 12 29 10 11 24 27 31 35 17 21 29 20 42 -4 15 -27 44 -27 37 1 -3
12 0 22 9 26 12 4 9 15 -15 58 -32 57 -55 130 -46 145 3 5 19 -5 35 -23 17
-19 30 -26 30 -18 0 24 -34 90 -47 91 -7 0 -13 4 -13 8 0 5 -9 19 -19 31 -14
16 -21 18 -25 9 -3 -7 -3 -2 0 12 9 38 28 53 55 45 13 -5 26 -8 28 -9 2 -1 5
13 7 31 3 25 -1 33 -16 38 -11 4 -20 11 -20 16 0 15 -54 -2 -72 -23 -18 -20
-18 -20 -49 6 -17 14 -36 26 -43 26 -7 0 -20 16 -29 36 -10 19 -36 59 -58 89
-27 36 -42 67 -45 94 -3 22 -11 56 -19 75 -8 18 -11 36 -8 40 11 11 -56 66
-82 66 -30 0 -26 -13 21 -83 29 -42 33 -56 33 -112 -1 -48 4 -71 19 -92 11
-16 23 -39 27 -53 4 -13 33 -48 64 -76 55 -52 56 -53 57 -111 1 -60 31 -152
61 -181 9 -10 12 -17 5 -20 -6 -2 -8 -10 -5 -18 3 -9 -2 -14 -17 -14 -19 0
-21 -4 -16 -25 5 -20 3 -25 -14 -25 -11 0 -20 6 -20 14 0 7 -7 19 -15 26 -12
10 -13 7 -5 -22 15 -49 12 -55 -11 -31 -19 19 -20 24 -8 57 9 24 10 40 4 44
-24 17 -78 97 -117 172 -7 14 -17 28 -22 32 -13 9 -35 -21 -36 -48 0 -12 -7
-27 -15 -34 -12 -10 -22 -8 -55 14 -38 25 -52 46 -30 46 6 0 5 8 -2 20 -7 11
-19 20 -26 20 -7 0 -12 8 -11 18 3 32 -3 77 -8 63 -4 -10 -12 -6 -29 14 -27
32 -24 43 11 40 14 -2 25 1 25 7 0 6 -14 8 -34 5 -29 -5 -35 -2 -41 16 -14 43
-15 56 -4 62 7 5 6 11 -2 21 -10 12 -8 13 7 8 15 -6 17 -4 7 6 -10 11 -9 16 2
24 8 6 15 22 15 36 -2 79 -10 129 -26 165 -10 22 -17 43 -16 48 1 4 -2 7 -7 7
-10 0 -27 39 -23 53 1 4 -7 25 -17 46 -15 29 -17 41 -8 50 8 8 7 11 -5 11 -10
0 -19 12 -23 29 -4 19 -11 28 -19 25 -24 -9 -26 25 -4 41 22 15 22 15 3 31
-17 13 -17 15 -2 10 20 -6 22 5 5 22 -6 6 -8 15 -4 19 4 5 15 -1 23 -12 15
-20 15 -19 10 4 l-6 23 26 -23 c15 -13 23 -18 19 -11 -9 15 -4 15 26 1 13 -6
28 -20 33 -32 7 -14 19 -22 37 -23 14 -1 34 -8 43 -17 9 -10 28 -17 42 -17 36
0 225 -114 268 -161 36 -40 45 -69 23 -69 -7 0 -33 9 -57 20 -54 25 -60 25
-33 0 12 -11 25 -20 29 -20 5 0 38 -30 73 -67 35 -38 72 -72 81 -78 9 -5 26
-16 38 -23 11 -7 21 -9 21 -4 0 11 -24 32 -52 47 -12 5 -28 21 -37 34 l-15 24
42 -27 c23 -14 42 -23 42 -20 0 3 -20 28 -44 55 -48 53 -67 95 -38 85 9 -4
-23 32 -73 79 -49 47 -85 85 -78 85 6 0 40 -27 74 -60 62 -60 104 -84 58 -32
-31 33 -79 105 -79 117 0 4 8 1 18 -8 16 -15 18 -14 16 10 0 19 -14 36 -55 64
-64 47 -56 51 18 9 82 -46 75 -36 -13 21 -174 113 -279 183 -289 192 -18 17
39 -5 64 -24z m-2760 -291 c-2 -7 3 -33 10 -58 9 -32 10 -49 2 -62 -7 -12 -7
-18 1 -20 7 -3 9 -12 5 -22 -8 -21 -41 -18 -43 4 -1 8 -2 21 -3 28 -1 8 -18
-1 -45 -22 -49 -40 -73 -48 -56 -17 7 14 6 21 -3 24 -7 2 -1 15 18 34 17 16
46 50 65 76 35 46 53 59 49 35z m1765 -203 c4 -16 11 -22 21 -19 11 5 12 11 5
24 -15 28 -11 38 5 16 13 -17 15 -18 15 -3 0 14 7 16 34 11 27 -4 35 -1 38 12
2 14 12 8 48 -26 25 -24 44 -49 42 -56 -1 -7 2 -15 7 -19 16 -9 1 -38 -43 -77
-45 -42 -58 -45 -100 -23 -15 8 -39 15 -52 15 -27 0 -42 19 -24 30 16 10 -9
50 -32 50 -33 0 -29 20 4 21 18 0 28 3 21 5 -7 3 -9 12 -6 21 5 12 -1 14 -27
11 -17 -1 -32 0 -31 5 1 4 1 16 1 28 0 15 5 19 15 15 8 -3 15 0 15 6 0 19 38
-22 44 -47z m712 -620 c-7 -35 -7 -35 29 -35 29 0 35 -4 37 -22 4 -58 2 -84
-7 -97 -8 -11 -6 -13 6 -9 17 7 69 -38 69 -59 0 -6 14 -24 30 -40 32 -29 80
-106 80 -128 0 -8 9 -10 24 -8 32 6 49 -25 40 -72 -8 -42 -7 -50 5 -50 18 0
24 -15 12 -29 -12 -15 -57 -28 -106 -30 -37 -2 -58 -14 -49 -28 4 -5 -2 -8
-13 -6 -11 2 -27 -3 -37 -11 -26 -22 -27 -10 -3 42 17 36 26 45 39 41 12 -4
18 0 18 11 0 9 -5 13 -11 9 -6 -3 -14 -2 -18 4 -4 7 -17 13 -29 15 -32 5 -37
15 -18 35 16 19 13 50 -7 63 -5 4 0 15 12 26 24 22 23 71 -2 85 -10 5 -17 17
-17 28 0 14 -7 18 -27 17 -20 -2 -28 3 -30 18 -9 52 -14 65 -28 65 -10 0 -15
10 -15 28 0 21 -2 24 -10 12 -7 -12 -10 -8 -10 15 0 19 -7 35 -20 43 -11 7
-20 18 -20 25 1 7 6 5 14 -6 12 -16 14 -13 14 24 1 41 13 59 41 59 10 0 12 -9
7 -35z m5 -254 c13 -25 16 -38 8 -47 -8 -10 -6 -26 6 -58 18 -48 14 -96 -8
-96 -7 0 -23 -9 -35 -20 -12 -11 -30 -20 -40 -20 -23 0 -46 25 -37 40 3 5 0
10 -7 10 -9 0 -10 2 -2 8 18 11 21 71 5 81 -7 5 -15 25 -17 45 -3 32 -1 35 19
33 19 -2 22 2 19 31 -3 32 -3 32 34 30 30 -3 40 -9 55 -37z m-1961 -171 c0 -5
-7 -10 -16 -10 -8 0 -12 -5 -9 -11 4 -6 -2 -20 -13 -32 -19 -22 -42 -60 -42
-71 0 -4 9 -1 20 6 10 7 23 8 27 4 4 -5 2 -11 -4 -13 -21 -7 -15 -30 8 -36 12
-3 35 -3 50 0 33 6 36 -2 14 -43 -16 -32 -12 -43 10 -24 8 7 15 9 15 5 0 -4
-8 -13 -17 -20 -18 -14 -28 -55 -13 -55 6 0 10 5 10 10 0 6 4 10 10 10 5 0 6
-7 3 -17 -4 -11 -3 -14 5 -9 15 9 15 -2 1 -43 -12 -35 -45 -45 -36 -10 5 20 5
20 -14 3 -20 -18 -20 -18 -10 10 6 15 11 37 11 49 -1 20 -2 20 -11 4 -14 -25
-58 -67 -69 -67 -16 0 -11 10 18 36 25 23 25 25 5 19 -17 -5 -23 -2 -23 11 0
12 -3 14 -13 6 -12 -10 -123 -9 -134 2 -3 3 5 17 17 33 12 16 17 29 11 31 -6
2 -11 8 -11 13 0 6 4 8 10 4 12 -7 53 33 45 45 -3 4 -2 10 2 12 5 1 19 25 33
51 14 27 38 61 54 78 28 29 56 38 56 19z m-1465 -2150 c3 -5 19 -10 36 -10 18
0 33 -7 41 -20 7 -11 18 -20 25 -20 7 0 32 -15 56 -33 24 -18 58 -39 75 -46
17 -7 29 -17 26 -22 -3 -5 3 -9 12 -9 18 0 54 -27 54 -40 0 -12 -49 -23 -103
-25 -36 -1 -46 2 -42 12 3 7 8 19 11 27 3 9 -4 16 -21 20 -17 4 -30 17 -37 36
-7 22 -16 30 -33 30 -13 0 -30 6 -38 14 -8 8 -31 18 -51 22 -26 4 -36 11 -32
20 4 10 -3 14 -20 14 -13 0 -27 -7 -30 -15 -4 -8 -15 -15 -25 -15 -10 0 -19
-4 -19 -9 0 -5 -10 -11 -22 -14 -21 -5 -21 -5 -5 7 9 7 17 20 17 28 0 20 21
37 57 48 39 12 61 12 68 0z m424 -234 c5 -4 12 -2 16 4 10 15 34 12 83 -11 28
-14 39 -24 32 -29 -8 -5 0 -11 20 -18 41 -15 35 -38 -9 -34 -18 2 -38 -2 -46
-8 -7 -6 -17 -10 -21 -9 -22 4 -32 -3 -38 -23 l-7 -23 -11 23 c-8 15 -20 22
-42 23 -61 2 -69 4 -74 18 -4 11 5 12 42 7 43 -7 62 3 36 19 -5 3 -10 15 -10
26 0 11 -7 22 -15 25 -25 10 -17 25 10 20 13 -3 29 -7 34 -10z m4043 -1863
c-118 -141 -460 -441 -561 -493 -43 -22 -17 7 89 96 58 49 148 130 200 181 52
50 118 107 145 126 28 18 75 57 105 85 30 29 57 52 58 52 2 0 -14 -21 -36 -47z"/>
<path d="M7498 5143 c-10 -2 -18 -9 -18 -14 0 -6 -12 -26 -26 -44 l-26 -34 21
-22 c12 -13 21 -27 21 -33 0 -6 5 -5 12 2 16 16 28 15 28 -3 0 -8 -4 -15 -8
-15 -5 0 -15 -11 -22 -25 -16 -30 -30 -33 -30 -6 0 10 -7 24 -16 32 -9 7 -14
22 -11 36 2 13 -2 28 -9 34 -8 6 -14 8 -14 4 0 -5 -9 0 -20 10 -11 10 -17 22
-13 28 3 5 0 7 -8 5 -10 -4 -14 -24 -14 -71 0 -37 -4 -67 -8 -67 -5 0 -5 -19
-1 -42 4 -24 7 -65 6 -93 -2 -39 4 -61 26 -99 25 -43 32 -49 65 -51 29 -1 37
2 37 15 0 9 8 24 18 33 20 19 62 23 62 7 0 -5 4 -10 9 -10 5 0 23 -13 39 -28
36 -34 87 -34 95 0 7 27 -20 114 -42 135 -9 10 -31 36 -47 58 -16 22 -40 49
-54 61 -18 16 -24 32 -25 66 -1 24 -5 50 -9 57 -4 7 -5 28 -2 47 4 19 6 33 4
33 -2 -1 -11 -3 -20 -6z"/>
<path d="M7724 5103 c-9 -64 3 -160 24 -191 11 -15 22 -38 25 -52 4 -14 27
-70 53 -125 35 -76 48 -115 51 -160 4 -76 22 -157 37 -170 6 -6 16 -19 22 -30
12 -22 25 -27 41 -17 18 11 -10 148 -48 237 -4 11 -15 47 -24 80 -30 113 -38
140 -45 145 -33 23 -87 200 -62 200 5 0 0 27 -10 59 -13 39 -25 61 -38 64 -16
4 -20 -2 -26 -40z"/>
</g>
</svg>
